<svg xmlns="http://www.w3.org/2000/svg" xmlns:xlink="http://www.w3.org/1999/xlink" width="1000" zoomAndPan="magnify" viewBox="0 0 750 749.999995" height="1000" preserveAspectRatio="xMidYMid meet" version="1.0"><rect x="-75" width="900" fill="#ffffff" y="-74.999999" height="899.999994" fill-opacity="1"/><rect x="-75" width="900" fill="#ffffff" y="-74.999999" height="899.999994" fill-opacity="1"/><path fill="#fede46" d="M 251.15625 599.242188 C 227.953125 597.144531 219.5625 587.949219 214.34375 560.097656 C 208.179688 528.441406 213.148438 496.871094 216.570312 465.726562 C 218.28125 450.238281 214.601562 438.734375 205.015625 427.527344 C 184.894531 404.765625 163.066406 383.164062 146.289062 357.539062 C 127.628906 328.617188 133.449219 306.972656 164.695312 293.367188 C 194.3125 280.535156 225.902344 273.902344 257.234375 266.886719 C 274.09375 263.25 286.511719 255.59375 295.417969 240.789062 C 307.484375 221.027344 320.074219 200.921875 334.109375 182.484375 C 361.84375 145.863281 391.207031 147.058594 416.207031 185.175781 C 427.078125 201.605469 437.4375 218.804688 446.941406 236.515625 C 454.214844 249.863281 465.089844 256.878906 479.207031 260.171875 C 511.828125 267.398438 544.011719 275.058594 575.515625 285.882812 C 587.929688 290.289062 600.773438 295.078125 608.394531 306.972656 C 607.449219 317.453125 598.03125 319.507812 591.183594 323.230469 C 553.515625 340.683594 513.878906 353.816406 474.929688 368.277344 C 448.394531 378.078125 421.683594 388.085938 395.40625 398.222656 C 383.675781 402.675781 374.175781 410.414062 367.242188 420.511719 C 330.261719 478.734375 289.425781 534.390625 255.351562 594.414062 C 254.40625 596.289062 252.867188 597.65625 251.15625 599.242188 Z M 251.15625 599.242188 " fill-opacity="1" fill-rule="evenodd"/><path fill="#febc21" d="M 251.15625 599.242188 C 253.378906 579.347656 267.246094 565.574219 277.09375 549.960938 C 305.347656 505.640625 334.878906 462.476562 363.554688 418.242188 C 370.917969 407.160156 380.332031 399.074219 392.234375 394.582031 C 433.835938 379.183594 475.957031 365.28125 516.621094 348.425781 C 547.695312 335.589844 581.59375 329.046875 608.394531 306.972656 C 622.59375 327.335938 613.183594 345.132812 601.285156 361.816406 C 587.929688 381.023438 571.667969 398.050781 554.027344 412.851562 C 529.460938 433.386719 525.695312 458.070312 530.3125 487.503906 C 534.507812 514.929688 538.53125 542.558594 532.203125 570.238281 C 526.980469 592.613281 509.6875 603.523438 487.597656 596.546875 C 456.953125 587.007812 430.753906 569.46875 404.304688 551.671875 C 381.875 536.871094 380.074219 536.53125 357.050781 550.902344 C 338.132812 562.496094 319.382812 574.390625 300.121094 585.042969 C 285.054688 593.382812 269.390625 600.871094 251.15625 599.242188 Z M 251.15625 599.242188 " fill-opacity="1" fill-rule="evenodd"/><path fill="#ffed9d" d="M 381.875 362.757812 C 382.128906 342.648438 380.847656 218.804688 374.941406 190.996094 C 371.171875 174.480469 363.296875 172.257812 351.226562 183.511719 C 335.214844 198.570312 321.515625 232.535156 308.171875 249.601562 C 302.605469 256.363281 297.550781 264.960938 290.707031 270.140625 L 373.226562 383.933594 C 378.707031 379.570312 381.875 372.597656 381.875 362.757812 Z M 381.875 362.757812 " fill-opacity="1" fill-rule="evenodd"/><path fill="#fec521" d="M 290.707031 270.140625 C 287.457031 272.789062 283.769531 274.714844 279.238281 275.742188 C 259.464844 279.25 240.96875 286.226562 221.453125 290.628906 C 203.046875 295.078125 184.898438 300.253906 166.664062 306.246094 C 160.585938 307.828125 154.507812 311.847656 154.507812 319.59375 C 154.765625 327.847656 161.871094 328.277344 167.691406 330.332031 C 170.171875 331.316406 172.910156 331.832031 175.566406 332.601562 C 231.382812 346.503906 294.5625 373.539062 350.460938 387.273438 C 360.046875 389.628906 367.75 388.429688 373.230469 383.933594 Z M 290.707031 270.140625 " fill-opacity="1" fill-rule="evenodd"/><path fill="#ff9f00" d="M 449.074219 377.644531 C 427.589844 385.132812 408.84375 391.675781 390.179688 398.820312 C 371.6875 405.878906 376.226562 423.933594 386.925781 440.101562 C 419.03125 487.503906 448.140625 513.300781 480.234375 561.128906 C 481.945312 563.269531 483.488281 565.574219 485.03125 567.671875 C 489.054688 572.292969 491.796875 579.011719 499.328125 576.269531 C 506.949219 573.917969 508.660156 566.734375 508.316406 560.015625 C 507.207031 535.414062 502.414062 511.414062 501.128906 486.992188 C 500.011719 463.160156 503.953125 450.238281 516.363281 430.394531 C 527.832031 412.167969 586.390625 354.503906 594.953125 334.308594 C 601.710938 318.816406 473.558594 370.324219 449.074219 377.644531 Z M 449.074219 377.644531 " fill-opacity="1" fill-rule="evenodd"/><path fill="#ffffff" d="M 451.90625 457.066406 C 450.617188 456.039062 448.992188 455.566406 447.367188 455.652344 C 446.722656 455.652344 389.152344 458.515625 370.597656 458.734375 C 370.773438 458.515625 370.980469 458.261719 371.109375 458.089844 C 377.378906 450.21875 384.210938 442.902344 390.84375 435.804688 C 397.886719 428.273438 405.183594 420.402344 412.007812 411.800781 C 428.871094 390.328125 447.816406 361.492188 444.449219 329.324219 C 440.8125 295.78125 407.042969 280.851562 375.175781 280.851562 C 357.585938 280.851562 340.613281 285.257812 327.40625 293.214844 C 327.171875 293.425781 298.367188 313.066406 297.46875 319.050781 C 297.253906 320.589844 297.832031 322.261719 299.007812 323.417969 C 300.761719 325.210938 304.121094 327.484375 308.316406 330.390625 C 312.53125 333.382812 324.027344 345.101562 326.292969 345.789062 C 328.605469 346.601562 331.261719 346.128906 332.867188 344.460938 L 335.023438 342.410156 C 336.589844 340.828125 338.34375 339.199219 340.140625 337.660156 C 352.015625 327.4375 365.414062 317.980469 382.515625 319.945312 C 388.9375 320.71875 393.300781 323.324219 395.933594 328.117188 C 402.378906 340.097656 396.277344 362.515625 389.324219 372.050781 C 379.710938 385.398438 368.925781 398.316406 358.738281 410.425781 C 343.027344 428.992188 329.761719 444.007812 317.027344 457.824219 C 310.609375 464.835938 301.746094 482.121094 306.882812 491.574219 C 308.871094 495.214844 312.8125 497.351562 317.648438 497.351562 C 322.71875 497.394531 328.304688 497.4375 334.171875 497.4375 C 371.09375 497.4375 441.199219 496.324219 449.523438 494.015625 C 452.003906 493.289062 453.761719 491.1875 453.761719 488.96875 L 453.761719 460.902344 C 453.765625 459.542969 453.058594 458.089844 451.90625 457.066406 Z M 451.90625 457.066406 " fill-opacity="1" fill-rule="evenodd"/><path fill="#ffffff" d="M 334.175781 512.277344 C 328.265625 512.277344 322.636719 512.230469 317.53125 512.191406 C 307.378906 512.191406 298.488281 507.148438 293.867188 498.699219 C 284.195312 480.90625 297.921875 456.742188 306.082031 447.828125 C 319.320312 433.464844 332.441406 418.550781 347.414062 400.855469 C 357.992188 388.28125 368.265625 375.925781 377.285156 363.394531 C 382.453125 356.308594 385.605469 340.25 382.875 335.152344 C 382.816406 335.132812 382.226562 334.851562 380.75 334.671875 C 379.878906 334.574219 378.925781 334.519531 378 334.519531 C 368.484375 334.519531 359.855469 340.265625 349.828125 348.898438 C 348.304688 350.207031 346.847656 351.558594 345.59375 352.828125 C 345.480469 352.941406 345.367188 353.050781 345.253906 353.15625 L 343.25 355.0625 C 337.804688 360.464844 329.117188 362.394531 321.648438 359.867188 C 317.53125 358.53125 314.5 355.859375 306.734375 348.703125 C 304.539062 346.683594 300.871094 343.300781 299.730469 342.476562 L 298.898438 341.902344 C 294.550781 338.894531 291.101562 336.507812 288.507812 333.882812 C 284.0625 329.453125 281.921875 323.160156 282.777344 317.011719 C 283.800781 310.191406 287.042969 303.363281 318.210938 281.558594 L 318.65625 281.242188 C 319.011719 280.984375 319.375 280.742188 319.75 280.515625 C 335.261719 271.167969 354.945312 266.023438 375.183594 266.023438 C 413.675781 266.023438 454.585938 285.101562 459.207031 327.726562 C 463.132812 365.273438 442.285156 397.269531 423.683594 420.957031 C 417.589844 428.632812 411.203125 435.691406 404.65625 442.742188 C 419.40625 442.121094 434.3125 441.417969 441.535156 441.074219 C 443.917969 440.960938 445.667969 440.882812 446.601562 440.847656 L 446.601562 440.839844 C 451.863281 440.558594 457.109375 442.230469 461.171875 445.472656 C 461.375 445.636719 461.574219 445.804688 461.769531 445.976562 C 466.117188 449.839844 468.609375 455.28125 468.609375 460.910156 L 468.609375 488.976562 C 468.609375 497.753906 462.484375 505.683594 453.714844 508.253906 C 439.609375 512.167969 335.222656 512.277344 334.175781 512.277344 Z M 320.410156 482.554688 C 324.804688 482.589844 329.394531 482.617188 334.171875 482.617188 C 371.503906 482.617188 420.125 481.664062 438.925781 480.371094 L 438.925781 470.890625 C 421.273438 471.722656 385.117188 473.394531 370.765625 473.558594 C 370.707031 473.558594 370.652344 473.558594 370.589844 473.558594 C 364.910156 473.558594 359.722656 470.3125 357.238281 465.195312 C 354.730469 460.023438 355.445312 453.867188 359.058594 449.402344 L 359.378906 449.007812 C 366.144531 440.511719 373.1875 432.972656 379.992188 425.683594 C 387.433594 417.726562 394.097656 410.496094 400.382812 402.582031 C 415.480469 383.355469 432.503906 357.765625 429.691406 330.863281 C 426.683594 303.101562 394.007812 295.675781 375.171875 295.675781 C 360.457031 295.675781 346.390625 299.214844 335.496094 305.652344 C 335.40625 305.714844 335.316406 305.78125 335.21875 305.851562 C 327.304688 311.382812 321.632812 315.710938 317.726562 318.910156 C 320.101562 320.714844 322.851562 323.222656 326.847656 326.90625 C 327.304688 327.335938 327.816406 327.800781 328.34375 328.289062 C 329.039062 327.660156 329.75 327.03125 330.476562 326.410156 C 342.847656 315.761719 358.183594 304.863281 377.992188 304.863281 C 380.050781 304.863281 382.144531 304.984375 384.210938 305.222656 C 398.441406 306.929688 405.503906 314.738281 408.9375 320.992188 C 418.792969 339.316406 410.671875 367.953125 401.3125 380.792969 C 391.738281 394.085938 381.082031 406.914062 370.09375 419.976562 C 354.820312 438.03125 341.433594 453.242188 327.9375 467.882812 C 324.492188 471.652344 321.316406 478.386719 320.410156 482.554688 Z M 320.410156 482.554688 " fill-opacity="1" fill-rule="nonzero"/><path fill="#ffffff" d="M 334.175781 512.277344 C 328.265625 512.277344 322.636719 512.230469 317.53125 512.191406 C 307.378906 512.191406 298.488281 507.148438 293.867188 498.699219 C 284.195312 480.90625 297.921875 456.742188 306.082031 447.828125 C 319.320312 433.464844 332.441406 418.550781 347.414062 400.855469 C 357.992188 388.28125 368.265625 375.925781 377.285156 363.394531 C 382.453125 356.308594 385.605469 340.25 382.875 335.152344 C 382.816406 335.132812 382.226562 334.851562 380.75 334.671875 C 379.878906 334.574219 378.925781 334.519531 378 334.519531 C 368.484375 334.519531 359.855469 340.265625 349.828125 348.898438 C 348.304688 350.207031 346.847656 351.558594 345.59375 352.828125 C 345.480469 352.941406 345.367188 353.050781 345.253906 353.15625 L 343.25 355.0625 C 337.804688 360.464844 329.117188 362.394531 321.648438 359.867188 C 317.53125 358.53125 314.5 355.859375 306.734375 348.703125 C 304.539062 346.683594 300.871094 343.300781 299.730469 342.476562 L 298.898438 341.902344 C 294.550781 338.894531 291.101562 336.507812 288.507812 333.882812 C 284.0625 329.453125 281.921875 323.160156 282.777344 317.011719 C 283.800781 310.191406 287.042969 303.363281 318.210938 281.558594 L 318.65625 281.242188 C 319.011719 280.984375 319.375 280.742188 319.75 280.515625 C 335.261719 271.167969 354.945312 266.023438 375.183594 266.023438 C 413.675781 266.023438 454.585938 285.101562 459.207031 327.726562 C 463.132812 365.273438 442.285156 397.269531 423.683594 420.957031 C 417.589844 428.632812 411.203125 435.691406 404.65625 442.742188 C 419.40625 442.121094 434.3125 441.417969 441.535156 441.074219 C 443.917969 440.960938 445.667969 440.882812 446.601562 440.847656 L 446.601562 440.839844 C 451.863281 440.558594 457.109375 442.230469 461.171875 445.472656 C 461.375 445.636719 461.574219 445.804688 461.769531 445.976562 C 466.117188 449.839844 468.609375 455.28125 468.609375 460.910156 L 468.609375 488.976562 C 468.609375 497.753906 462.484375 505.683594 453.714844 508.253906 C 439.609375 512.167969 335.222656 512.277344 334.175781 512.277344 Z M 320.410156 482.554688 C 324.804688 482.589844 329.394531 482.617188 334.171875 482.617188 C 371.503906 482.617188 420.125 481.664062 438.925781 480.371094 L 438.925781 470.890625 C 421.273438 471.722656 385.117188 473.394531 370.765625 473.558594 C 370.707031 473.558594 370.652344 473.558594 370.589844 473.558594 C 364.910156 473.558594 359.722656 470.3125 357.238281 465.195312 C 354.730469 460.023438 355.445312 453.867188 359.058594 449.402344 L 359.378906 449.007812 C 366.144531 440.511719 373.1875 432.972656 379.992188 425.683594 C 387.433594 417.726562 394.097656 410.496094 400.382812 402.582031 C 415.480469 383.355469 432.503906 357.765625 429.691406 330.863281 C 426.683594 303.101562 394.007812 295.675781 375.171875 295.675781 C 360.457031 295.675781 346.390625 299.214844 335.496094 305.652344 C 335.40625 305.714844 335.316406 305.78125 335.21875 305.851562 C 327.304688 311.382812 321.632812 315.710938 317.726562 318.910156 C 320.101562 320.714844 322.851562 323.222656 326.847656 326.90625 C 327.304688 327.335938 327.816406 327.800781 328.34375 328.289062 C 329.039062 327.660156 329.75 327.03125 330.476562 326.410156 C 342.847656 315.761719 358.183594 304.863281 377.992188 304.863281 C 380.050781 304.863281 382.144531 304.984375 384.210938 305.222656 C 398.441406 306.929688 405.503906 314.738281 408.9375 320.992188 C 418.792969 339.316406 410.671875 367.953125 401.3125 380.792969 C 391.738281 394.085938 381.082031 406.914062 370.09375 419.976562 C 354.820312 438.03125 341.433594 453.242188 327.9375 467.882812 C 324.492188 471.652344 321.316406 478.386719 320.410156 482.554688 Z M 320.410156 482.554688 " fill-opacity="1" fill-rule="nonzero"/><path fill="#472900" d="M 451.90625 457.066406 C 450.617188 456.039062 448.992188 455.566406 447.367188 455.652344 C 446.722656 455.652344 389.152344 458.515625 370.597656 458.734375 C 370.773438 458.515625 370.980469 458.261719 371.109375 458.089844 C 377.378906 450.21875 384.210938 442.902344 390.84375 435.804688 C 397.886719 428.273438 405.183594 420.402344 412.007812 411.800781 C 428.871094 390.328125 447.816406 361.492188 444.449219 329.324219 C 440.8125 295.78125 407.042969 280.851562 375.175781 280.851562 C 357.585938 280.851562 340.613281 285.257812 327.40625 293.214844 C 327.171875 293.425781 298.367188 313.066406 297.46875 319.050781 C 297.253906 320.589844 297.832031 322.261719 299.007812 323.417969 C 300.761719 325.210938 304.121094 327.484375 308.316406 330.390625 C 312.53125 333.382812 324.027344 345.101562 326.292969 345.789062 C 328.605469 346.601562 331.261719 346.128906 332.867188 344.460938 L 335.023438 342.410156 C 336.589844 340.828125 338.34375 339.199219 340.140625 337.660156 C 352.015625 327.4375 365.414062 317.980469 382.515625 319.945312 C 388.9375 320.71875 393.300781 323.324219 395.933594 328.117188 C 402.378906 340.097656 396.277344 362.515625 389.324219 372.050781 C 379.710938 385.398438 368.925781 398.316406 358.738281 410.425781 C 343.027344 428.992188 329.761719 444.007812 317.027344 457.824219 C 310.609375 464.835938 301.746094 482.121094 306.882812 491.574219 C 308.871094 495.214844 312.8125 497.351562 317.648438 497.351562 C 322.71875 497.394531 328.304688 497.4375 334.171875 497.4375 C 371.09375 497.4375 441.199219 496.324219 449.523438 494.015625 C 452.003906 493.289062 453.761719 491.1875 453.761719 488.96875 L 453.761719 460.902344 C 453.765625 459.542969 453.058594 458.089844 451.90625 457.066406 Z M 451.90625 457.066406 " fill-opacity="1" fill-rule="evenodd"/><path fill="#472900" d="M 451.90625 457.066406 C 450.617188 456.039062 448.992188 455.566406 447.367188 455.652344 C 446.722656 455.652344 389.152344 458.515625 370.597656 458.734375 C 370.773438 458.515625 370.980469 458.261719 371.109375 458.089844 C 377.378906 450.21875 384.210938 442.902344 390.84375 435.804688 C 397.886719 428.273438 405.183594 420.402344 412.007812 411.800781 C 428.871094 390.328125 447.816406 361.492188 444.449219 329.324219 C 440.8125 295.78125 407.042969 280.851562 375.175781 280.851562 C 357.585938 280.851562 340.613281 285.257812 327.40625 293.214844 C 327.171875 293.425781 298.367188 313.066406 297.46875 319.050781 C 297.253906 320.589844 297.832031 322.261719 299.007812 323.417969 C 300.761719 325.210938 304.121094 327.484375 308.316406 330.390625 C 312.53125 333.382812 324.027344 345.101562 326.292969 345.789062 C 328.605469 346.601562 331.261719 346.128906 332.867188 344.460938 L 335.023438 342.410156 C 336.589844 340.828125 338.34375 339.199219 340.140625 337.660156 C 352.015625 327.4375 365.414062 317.980469 382.515625 319.945312 C 388.9375 320.71875 393.300781 323.324219 395.933594 328.117188 C 402.378906 340.097656 396.277344 362.515625 389.324219 372.050781 C 379.710938 385.398438 368.925781 398.316406 358.738281 410.425781 C 343.027344 428.992188 329.761719 444.007812 317.027344 457.824219 C 310.609375 464.835938 301.746094 482.121094 306.882812 491.574219 C 308.871094 495.214844 312.8125 497.351562 317.648438 497.351562 C 322.71875 497.394531 328.304688 497.4375 334.171875 497.4375 C 371.09375 497.4375 441.199219 496.324219 449.523438 494.015625 C 452.003906 493.289062 453.761719 491.1875 453.761719 488.96875 L 453.761719 460.902344 C 453.765625 459.542969 453.058594 458.089844 451.90625 457.066406 Z M 451.90625 457.066406 " fill-opacity="1" fill-rule="evenodd"/></svg>