<svg xmlns="http://www.w3.org/2000/svg" xmlns:xlink="http://www.w3.org/1999/xlink" width="1000" zoomAndPan="magnify" viewBox="0 0 750 749.999995" height="1000" preserveAspectRatio="xMidYMid meet" version="1.0"><rect x="-75" width="900" fill="#ffffff" y="-74.999999" height="899.999994" fill-opacity="1"/><rect x="-75" width="900" fill="#ffffff" y="-74.999999" height="899.999994" fill-opacity="1"/><path fill="#fede46" d="M 253.019531 596.023438 C 230.171875 593.960938 221.910156 584.898438 216.765625 557.457031 C 210.699219 526.269531 215.585938 495.160156 218.957031 464.476562 C 220.648438 449.21875 217.019531 437.882812 207.578125 426.835938 C 187.761719 404.414062 166.265625 383.128906 149.742188 357.882812 C 131.359375 329.386719 137.09375 308.058594 167.863281 294.652344 C 197.035156 282.011719 228.148438 275.476562 259.003906 268.566406 C 275.613281 264.980469 287.839844 257.4375 296.605469 242.851562 C 308.496094 223.378906 320.890625 203.570312 334.714844 185.40625 C 362.03125 149.324219 390.949219 150.5 415.5625 188.058594 C 426.269531 204.246094 436.472656 221.191406 445.835938 238.640625 C 452.996094 251.792969 463.707031 258.703125 477.617188 261.949219 C 509.742188 269.070312 541.441406 276.617188 572.464844 287.28125 C 584.691406 291.621094 597.335938 296.34375 604.839844 308.058594 C 603.90625 318.386719 594.636719 320.410156 587.894531 324.078125 C 550.796875 341.273438 511.765625 354.214844 473.402344 368.460938 C 447.265625 378.117188 420.964844 387.980469 395.082031 397.964844 C 383.53125 402.351562 374.175781 409.976562 367.34375 419.929688 C 330.917969 477.292969 290.707031 532.128906 257.148438 591.265625 C 256.222656 593.117188 254.703125 594.464844 253.019531 596.023438 Z M 253.019531 596.023438 " fill-opacity="1" fill-rule="evenodd"/><path fill="#febc21" d="M 253.019531 596.023438 C 255.207031 576.425781 268.871094 562.855469 278.570312 547.46875 C 306.386719 503.804688 335.472656 461.273438 363.71875 417.691406 C 370.96875 406.773438 380.246094 398.804688 391.960938 394.378906 C 432.9375 379.207031 474.417969 365.511719 514.464844 348.902344 C 545.066406 336.257812 578.453125 329.808594 604.839844 308.058594 C 618.839844 328.121094 609.566406 345.660156 597.84375 362.09375 C 584.691406 381.019531 568.671875 397.796875 551.304688 412.382812 C 527.105469 432.609375 523.394531 456.929688 527.953125 485.929688 C 532.082031 512.953125 536.046875 540.175781 529.808594 567.449219 C 524.664062 589.492188 507.632812 600.242188 485.878906 593.367188 C 455.699219 583.972656 429.898438 566.691406 403.847656 549.15625 C 381.761719 534.570312 379.988281 534.238281 357.304688 548.398438 C 338.675781 559.824219 320.210938 571.539062 301.242188 582.03125 C 286.402344 590.25 270.976562 597.628906 253.019531 596.023438 Z M 253.019531 596.023438 " fill-opacity="1" fill-rule="evenodd"/><path fill="#ffed9d" d="M 381.757812 363.023438 C 382.011719 343.210938 380.746094 221.191406 374.929688 193.789062 C 371.21875 177.519531 363.464844 175.328125 351.574219 186.417969 C 335.808594 201.253906 322.320312 234.71875 309.167969 251.539062 C 303.691406 258.195312 298.714844 266.671875 291.96875 271.773438 L 373.242188 383.890625 C 378.636719 379.585938 381.757812 372.71875 381.757812 363.023438 Z M 381.757812 363.023438 " fill-opacity="1" fill-rule="evenodd"/><path fill="#fec521" d="M 291.96875 271.769531 C 288.765625 274.378906 285.140625 276.277344 280.671875 277.289062 C 261.199219 280.746094 242.984375 287.621094 223.765625 291.960938 C 205.640625 296.34375 187.765625 301.445312 169.804688 307.34375 C 163.820312 308.902344 157.835938 312.863281 157.835938 320.492188 C 158.085938 328.628906 165.085938 329.050781 170.820312 331.074219 C 173.265625 332.042969 175.96875 332.550781 178.578125 333.308594 C 233.546875 347.007812 295.769531 373.644531 350.816406 387.179688 C 360.261719 389.496094 367.847656 388.316406 373.246094 383.890625 Z M 291.96875 271.769531 " fill-opacity="1" fill-rule="evenodd"/><path fill="#ff9f00" d="M 447.9375 377.691406 C 426.777344 385.066406 408.3125 391.515625 389.9375 398.554688 C 371.726562 405.507812 376.195312 423.296875 386.730469 439.226562 C 418.347656 485.929688 447.015625 511.34375 478.628906 558.46875 C 480.3125 560.578125 481.832031 562.855469 483.347656 564.917969 C 487.3125 569.472656 490.011719 576.089844 497.429688 573.390625 C 504.9375 571.074219 506.621094 563.992188 506.28125 557.375 C 505.183594 533.136719 500.464844 509.492188 499.199219 485.421875 C 498.101562 461.945312 501.984375 449.21875 514.207031 429.660156 C 525.503906 411.699219 583.171875 354.886719 591.601562 334.988281 C 598.261719 319.730469 472.054688 370.480469 447.9375 377.691406 Z M 447.9375 377.691406 " fill-opacity="1" fill-rule="evenodd"/><path fill="#ffffff" d="M 363.542969 514.652344 C 363.539062 514.652344 363.535156 514.652344 363.527344 514.652344 L 343.636719 514.632812 C 330.734375 514.566406 313.554688 511.550781 312.574219 486.261719 C 312.441406 482.355469 312.34375 478.238281 312.535156 474.101562 C 313.128906 457.757812 321.863281 448.664062 338.507812 447.179688 L 342.316406 362.441406 C 334.214844 366.488281 324.210938 365.066406 317.746094 359.179688 C 307.984375 350.261719 303.625 340.488281 300.445312 333.351562 L 300.300781 333.03125 C 294.996094 320.886719 300.921875 308.007812 309.160156 302.003906 L 320.269531 293.960938 C 332.203125 285.316406 344.542969 276.378906 357.617188 268.167969 C 367.1875 261.988281 381.171875 260.414062 399.460938 263.738281 C 413.46875 266.132812 420.019531 279.480469 420.964844 287.863281 C 421.5625 292.5625 421.300781 296.960938 421.074219 300.851562 L 420.992188 302.230469 L 413.757812 446.574219 C 413.8125 446.578125 413.871094 446.578125 413.921875 446.582031 C 422.371094 447.148438 429.476562 452.222656 432.480469 459.8125 C 436.644531 470.609375 437.394531 483.085938 434.746094 497.019531 C 433.003906 505.875 425.492188 512.628906 416.382812 513.664062 L 414.628906 513.90625 C 414.515625 513.921875 414.410156 513.9375 414.300781 513.949219 L 413.433594 514.050781 C 411.46875 514.285156 409.019531 514.574219 406.332031 514.574219 C 392.132812 514.632812 377.859375 514.652344 363.542969 514.652344 Z M 342.746094 484.40625 C 343.050781 484.414062 343.375 484.417969 343.730469 484.417969 L 363.5625 484.4375 C 377.730469 484.4375 391.855469 484.417969 405.976562 484.355469 C 406.160156 481.535156 406.082031 478.894531 405.75 476.472656 L 397.960938 476.15625 C 390.117188 475.835938 383.828125 469.5625 383.484375 461.722656 L 383.402344 459.824219 C 383.394531 459.65625 383.390625 459.480469 383.390625 459.3125 C 383.34375 454.445312 383.300781 449.953125 383.582031 445.152344 L 390.914062 299.074219 C 391.046875 296.796875 391.164062 294.757812 391.089844 292.96875 C 387.722656 292.46875 384.734375 292.222656 382.105469 292.222656 C 376.347656 292.222656 374.214844 293.410156 373.847656 293.648438 C 361.460938 301.429688 349.535156 310.070312 338 318.425781 L 329.605469 324.503906 C 330.855469 327.171875 332.203125 329.742188 333.953125 332.175781 L 350.699219 321.730469 C 355.464844 318.765625 361.476562 318.679688 366.320312 321.507812 C 371.164062 324.339844 374.035156 329.621094 373.785156 335.226562 L 368.054688 462.707031 C 367.6875 470.84375 360.988281 477.285156 352.785156 477.132812 L 347.433594 477.070312 C 345.925781 477.070312 344.300781 477.117188 342.664062 477.1875 C 342.617188 479.582031 342.667969 482.035156 342.746094 484.40625 Z M 342.746094 484.40625 " fill-opacity="1" fill-rule="nonzero"/><path fill="#472900" d="M 418.429688 465.363281 C 417.589844 463.230469 415.4375 461.820312 412.910156 461.652344 L 398.574219 461.0625 L 398.492188 459.164062 C 398.449219 454.632812 398.40625 450.355469 398.660156 446.035156 L 403.046875 358.132812 L 405.910156 301.394531 C 406.125 297.496094 406.457031 293.558594 405.953125 289.550781 C 405.617188 286.585938 402.921875 279.648438 396.761719 278.59375 C 386.433594 276.722656 373.621094 275.8125 365.652344 280.957031 C 351.820312 289.640625 338.675781 299.289062 325.855469 308.5625 L 318.058594 314.210938 C 314.640625 316.699219 312.074219 322.242188 314.097656 326.878906 C 317.046875 333.496094 320.375 341.121094 327.921875 348.011719 C 330.074219 349.972656 333.484375 350.226562 336.015625 348.6875 L 358.691406 334.546875 L 352.960938 462.027344 L 347.609375 461.964844 C 345.546875 461.964844 343.523438 462.027344 341.5 462.113281 C 331.046875 462.597656 327.96875 465.441406 327.628906 474.796875 C 327.464844 478.359375 327.546875 482.046875 327.671875 485.675781 C 328.097656 496.65625 331.425781 499.457031 343.648438 499.523438 L 363.542969 499.542969 C 377.835938 499.542969 392.085938 499.523438 406.332031 499.460938 C 408.441406 499.460938 410.546875 499.164062 412.570312 498.929688 L 414.554688 498.660156 C 417.25 498.40625 419.449219 496.53125 419.90625 494.191406 C 422.015625 483.085938 421.511719 473.347656 418.429688 465.363281 Z M 418.429688 465.363281 " fill-opacity="1" fill-rule="evenodd"/></svg>