<svg xmlns="http://www.w3.org/2000/svg" xmlns:xlink="http://www.w3.org/1999/xlink" width="1000" zoomAndPan="magnify" viewBox="0 0 750 749.999995" height="1000" preserveAspectRatio="xMidYMid meet" version="1.0"><rect x="-75" width="900" fill="#ffffff" y="-74.999999" height="899.999994" fill-opacity="1"/><rect x="-75" width="900" fill="#ffffff" y="-74.999999" height="899.999994" fill-opacity="1"/><path fill="#fede46" d="M 259.167969 594.289062 C 235.507812 592.152344 226.953125 582.777344 221.636719 554.378906 C 215.347656 522.101562 220.410156 489.910156 223.898438 458.152344 C 225.644531 442.363281 221.894531 430.632812 212.117188 419.199219 C 191.605469 395.992188 169.339844 373.964844 152.238281 347.839844 C 133.207031 318.351562 139.144531 296.277344 171.003906 282.40625 C 201.207031 269.320312 233.417969 262.5625 265.363281 255.40625 C 282.5625 251.699219 295.214844 243.890625 304.296875 228.800781 C 316.601562 208.644531 329.4375 188.148438 343.75 169.34375 C 372.035156 132.003906 401.972656 133.226562 427.464844 172.089844 C 438.546875 188.84375 449.117188 206.378906 458.804688 224.4375 C 466.222656 238.046875 477.308594 245.203125 491.714844 248.558594 C 524.96875 255.929688 557.792969 263.738281 589.914062 274.773438 C 602.574219 279.273438 615.667969 284.152344 623.441406 296.277344 C 622.476562 306.96875 612.875 309.058594 605.890625 312.859375 C 567.484375 330.65625 527.0625 344.046875 487.347656 358.785156 C 460.289062 368.777344 433.050781 378.984375 406.257812 389.320312 C 394.296875 393.859375 384.605469 401.75 377.539062 412.050781 C 339.820312 471.414062 298.183594 528.164062 263.445312 589.367188 C 262.480469 591.28125 260.914062 592.675781 259.167969 594.289062 Z M 259.167969 594.289062 " fill-opacity="1" fill-rule="evenodd"/><path fill="#febc21" d="M 259.167969 594.289062 C 261.4375 574.007812 275.574219 559.964844 285.617188 544.042969 C 314.425781 498.851562 344.542969 454.839844 373.785156 409.738281 C 381.285156 398.4375 390.894531 390.191406 403.027344 385.613281 C 445.453125 369.914062 488.402344 355.734375 529.863281 338.550781 C 561.554688 325.460938 596.117188 318.789062 623.441406 296.277344 C 637.925781 317.042969 628.332031 335.191406 616.191406 352.199219 C 602.578125 371.789062 585.992188 389.148438 568.007812 404.242188 C 542.960938 425.179688 539.113281 450.347656 543.824219 480.359375 C 548.105469 508.320312 552.210938 536.496094 545.75 564.722656 C 540.425781 587.535156 522.796875 598.660156 500.265625 591.546875 C 469.019531 581.820312 442.304688 563.9375 415.332031 545.789062 C 392.464844 530.695312 390.628906 530.351562 367.148438 545.007812 C 347.851562 556.828125 328.734375 568.953125 309.097656 579.816406 C 293.734375 588.316406 277.757812 595.953125 259.167969 594.289062 Z M 259.167969 594.289062 " fill-opacity="1" fill-rule="evenodd"/><path fill="#ffed9d" d="M 392.460938 353.15625 C 392.722656 332.65625 391.410156 206.375 385.386719 178.023438 C 381.546875 161.1875 373.515625 158.917969 361.214844 170.390625 C 344.890625 185.746094 330.921875 220.382812 317.304688 237.785156 C 311.625 244.675781 306.480469 253.445312 299.496094 258.726562 L 383.640625 374.753906 C 389.230469 370.304688 392.460938 363.191406 392.460938 353.15625 Z M 392.460938 353.15625 " fill-opacity="1" fill-rule="evenodd"/><path fill="#fec521" d="M 299.496094 258.722656 C 296.175781 261.425781 292.421875 263.386719 287.800781 264.433594 C 267.640625 268.011719 248.777344 275.121094 228.878906 279.613281 C 210.105469 284.148438 191.609375 289.429688 173.011719 295.539062 C 166.8125 297.148438 160.617188 301.25 160.617188 309.148438 C 160.875 317.566406 168.121094 318.003906 174.0625 320.097656 C 176.589844 321.101562 179.382812 321.625 182.089844 322.410156 C 239 336.585938 303.421875 364.152344 360.425781 378.15625 C 370.203125 380.554688 378.058594 379.332031 383.644531 374.75 Z M 299.496094 258.722656 " fill-opacity="1" fill-rule="evenodd"/><path fill="#ff9f00" d="M 460.988281 368.335938 C 439.074219 375.972656 419.960938 382.644531 400.929688 389.929688 C 382.074219 397.125 386.703125 415.535156 397.613281 432.023438 C 430.347656 480.355469 460.027344 506.65625 492.769531 555.425781 C 494.507812 557.609375 496.078125 559.964844 497.652344 562.101562 C 501.753906 566.8125 504.542969 573.660156 512.226562 570.867188 C 520 568.46875 521.746094 561.144531 521.394531 554.292969 C 520.261719 529.210938 515.371094 504.738281 514.0625 479.832031 C 512.933594 455.53125 516.941406 442.359375 529.601562 422.125 C 541.296875 403.539062 601.007812 344.738281 609.738281 324.152344 C 616.625 308.359375 485.953125 360.878906 460.988281 368.335938 Z M 460.988281 368.335938 " fill-opacity="1" fill-rule="evenodd"/><path fill="#ffffff" d="M 415.507812 367.878906 C 415.328125 367.792969 415.132812 367.75 415.003906 367.75 C 415.183594 367.488281 415.441406 367.269531 415.640625 367.054688 C 417.492188 365.304688 419.417969 363.5625 421.355469 361.816406 C 426.679688 357.0625 432.238281 352.046875 436.066406 346.15625 C 444.753906 332.851562 445.929688 317.367188 439.40625 303.582031 C 432.417969 289.058594 417.691406 278.066406 398.855469 273.617188 C 372.148438 267.292969 345.777344 269.386719 321.867188 279.769531 C 317.675781 281.597656 313.980469 284 310.472656 286.265625 C 308.902344 287.269531 307.441406 288.230469 305.894531 289.148438 C 303.402344 290.628906 302.550781 293.378906 303.886719 295.691406 L 318.8125 322.167969 C 319.683594 323.695312 321.414062 324.742188 323.304688 325.003906 C 325.292969 325.222656 327.214844 324.65625 328.570312 323.390625 L 330.574219 321.472656 C 331.796875 320.25 333.105469 319.027344 334.5 317.808594 C 345.5625 308.210938 358.335938 304.457031 374.019531 306.289062 C 383.078125 307.335938 390.300781 310.742188 394.234375 315.667969 C 397.722656 320.03125 398.675781 325.394531 397.089844 331.332031 C 394.691406 340.140625 387.289062 346.160156 373.648438 350.566406 C 369.722656 351.789062 365.617188 352.703125 361.347656 353.621094 L 354.886719 355.101562 C 352.265625 355.753906 350.523438 357.765625 350.523438 360.164062 L 350.523438 390.519531 C 350.523438 393.351562 353.140625 395.664062 356.457031 395.664062 L 364.226562 395.664062 C 365.578125 395.664062 366.800781 395.664062 368.066406 395.753906 C 378.953125 396.105469 388.25 398.066406 396.414062 401.816406 C 406.296875 406.355469 410.820312 412.457031 410.664062 421.054688 C 410.359375 437.804688 394.171875 451.023438 372.128906 452.371094 C 357.324219 453.289062 343.664062 450.277344 328.671875 442.867188 C 327.300781 442.210938 325.621094 442.078125 324.109375 442.425781 C 322.589844 442.816406 321.296875 443.738281 320.535156 444.960938 L 317.175781 450.144531 C 314.730469 454.03125 312.414062 457.652344 310.425781 461.269531 C 304.90625 471.257812 309.136719 475.707031 318.375 479.898438 C 332.230469 486.21875 346.761719 489.667969 361.453125 490.058594 L 365.070312 490.148438 C 391.785156 490.148438 416.75 481.078125 433.6875 465.324219 C 448.988281 451.105469 456.644531 432.609375 455.136719 413.460938 C 453.566406 392.261719 440.234375 376.953125 415.507812 367.878906 Z M 415.507812 367.878906 " fill-opacity="1" fill-rule="evenodd"/><path fill="#ffffff" d="M 365.070312 504.8125 C 364.953125 504.8125 364.835938 504.8125 364.714844 504.8125 L 361.097656 504.722656 C 344.414062 504.28125 328.003906 500.414062 312.28125 493.242188 C 305.613281 490.222656 297.53125 485.535156 294.429688 476.195312 C 292.1875 469.429688 293.25 462.027344 297.582031 454.1875 C 299.582031 450.539062 301.773438 447.066406 304.09375 443.390625 L 308.21875 436.996094 C 310.84375 432.769531 315.234375 429.574219 320.4375 428.234375 C 320.5625 428.203125 320.683594 428.171875 320.804688 428.144531 C 325.542969 427.054688 330.707031 427.59375 334.996094 429.640625 C 347.929688 436.027344 359.160156 438.496094 371.21875 437.742188 C 385.183594 436.886719 395.832031 429.601562 395.988281 420.796875 C 396.019531 419.386719 396.046875 417.792969 390.289062 415.148438 C 383.984375 412.253906 376.5625 410.707031 367.589844 410.417969 C 367.40625 410.410156 367.230469 410.402344 367.046875 410.386719 C 366.117188 410.324219 365.207031 410.332031 364.222656 410.335938 L 356.453125 410.335938 C 345.089844 410.335938 335.847656 401.449219 335.847656 390.527344 L 335.847656 360.167969 C 335.847656 351.085938 342.210938 343.152344 351.328125 340.878906 L 358.070312 339.332031 C 362.140625 338.457031 365.898438 337.625 369.292969 336.566406 C 381.535156 332.609375 382.585938 328.753906 382.929688 327.484375 C 383.421875 325.640625 383.03125 325.152344 382.773438 324.828125 C 381.867188 323.695312 378.65625 321.59375 372.332031 320.863281 C 360.761719 319.511719 352.089844 321.972656 344.117188 328.890625 C 343.019531 329.851562 341.9375 330.855469 340.933594 331.859375 L 338.714844 333.988281 C 334.125 338.28125 328.042969 340.292969 321.695312 339.582031 C 321.5625 339.570312 321.425781 339.550781 321.292969 339.535156 C 314.859375 338.648438 309.164062 334.871094 306.0625 329.4375 L 291.09375 302.890625 C 285.824219 293.761719 288.996094 282.132812 298.386719 276.550781 C 299.5 275.886719 300.539062 275.21875 301.617188 274.523438 L 302.554688 273.921875 C 306.492188 271.378906 310.785156 268.609375 315.984375 266.335938 C 342.742188 254.714844 372.542969 252.316406 402.238281 259.351562 C 425.300781 264.796875 443.667969 278.601562 452.628906 297.234375 C 461.433594 315.828125 459.863281 336.550781 448.355469 354.171875 C 446.03125 357.757812 443.296875 360.996094 440.480469 363.929688 C 462.300781 378.1875 468.65625 397.363281 469.769531 412.382812 C 471.632812 436.066406 462.367188 458.707031 443.675781 476.070312 C 424.03125 494.335938 395.382812 504.8125 365.070312 504.8125 Z M 324.328125 466.492188 C 324.367188 466.507812 324.402344 466.527344 324.4375 466.542969 C 336.585938 472.085938 349.160156 475.0625 361.84375 475.402344 L 365.246094 475.480469 C 388.152344 475.445312 409.449219 467.835938 423.6875 454.589844 C 435.6875 443.441406 441.660156 429.25 440.507812 414.613281 C 439.796875 404.972656 435.957031 391.210938 411.066406 381.875 C 407.238281 380.808594 403.9375 378.210938 402.027344 374.597656 C 399.488281 369.792969 399.8125 363.976562 402.878906 359.484375 C 403.683594 358.308594 404.480469 357.464844 405.09375 356.855469 C 405.246094 356.699219 405.398438 356.542969 405.558594 356.394531 C 407.492188 354.570312 409.5 352.746094 411.523438 350.921875 C 415.957031 346.96875 420.921875 342.535156 423.753906 338.167969 C 429.664062 329.117188 430.507812 319.070312 426.140625 309.855469 C 421.074219 299.324219 409.882812 291.289062 395.480469 287.886719 C 371.910156 282.304688 348.613281 284.144531 327.710938 293.214844 C 325.585938 294.144531 323.480469 295.378906 321.320312 296.738281 L 326.28125 305.546875 C 340.191406 294.117188 356.691406 289.492188 375.71875 291.71875 C 388.617188 293.210938 399.269531 298.46875 405.699219 306.511719 C 412.082031 314.5 414.0625 324.660156 411.261719 335.117188 C 405.679688 355.621094 384.96875 362.316406 378.164062 364.511719 C 373.722656 365.894531 369.34375 366.890625 365.191406 367.789062 L 365.191406 381 C 366.429688 381 367.59375 381.027344 368.785156 381.101562 C 381.636719 381.542969 392.679688 383.957031 402.539062 388.488281 C 421.710938 397.285156 425.515625 411.199219 425.332031 421.320312 C 424.886719 445.960938 402.886719 465.179688 373.019531 467.007812 C 357.933594 467.9375 343.777344 465.453125 328.871094 459.097656 C 327.242188 461.683594 325.691406 464.148438 324.328125 466.492188 Z M 324.328125 466.492188 " fill-opacity="1" fill-rule="nonzero"/><path fill="#ffffff" d="M 365.070312 504.8125 C 364.953125 504.8125 364.835938 504.8125 364.714844 504.8125 L 361.097656 504.722656 C 344.414062 504.28125 328.003906 500.414062 312.28125 493.242188 C 305.613281 490.222656 297.53125 485.535156 294.429688 476.195312 C 292.1875 469.429688 293.25 462.027344 297.582031 454.1875 C 299.582031 450.539062 301.773438 447.066406 304.09375 443.390625 L 308.21875 436.996094 C 310.84375 432.769531 315.234375 429.574219 320.4375 428.234375 C 320.5625 428.203125 320.683594 428.171875 320.804688 428.144531 C 325.542969 427.054688 330.707031 427.59375 334.996094 429.640625 C 347.929688 436.027344 359.160156 438.496094 371.21875 437.742188 C 385.183594 436.886719 395.832031 429.601562 395.988281 420.796875 C 396.019531 419.386719 396.046875 417.792969 390.289062 415.148438 C 383.984375 412.253906 376.5625 410.707031 367.589844 410.417969 C 367.40625 410.410156 367.230469 410.402344 367.046875 410.386719 C 366.117188 410.324219 365.207031 410.332031 364.222656 410.335938 L 356.453125 410.335938 C 345.089844 410.335938 335.847656 401.449219 335.847656 390.527344 L 335.847656 360.167969 C 335.847656 351.085938 342.210938 343.152344 351.328125 340.878906 L 358.070312 339.332031 C 362.140625 338.457031 365.898438 337.625 369.292969 336.566406 C 381.535156 332.609375 382.585938 328.753906 382.929688 327.484375 C 383.421875 325.640625 383.03125 325.152344 382.773438 324.828125 C 381.867188 323.695312 378.65625 321.59375 372.332031 320.863281 C 360.761719 319.511719 352.089844 321.972656 344.117188 328.890625 C 343.019531 329.851562 341.9375 330.855469 340.933594 331.859375 L 338.714844 333.988281 C 334.125 338.28125 328.042969 340.292969 321.695312 339.582031 C 321.5625 339.570312 321.425781 339.550781 321.292969 339.535156 C 314.859375 338.648438 309.164062 334.871094 306.0625 329.4375 L 291.09375 302.890625 C 285.824219 293.761719 288.996094 282.132812 298.386719 276.550781 C 299.5 275.886719 300.539062 275.21875 301.617188 274.523438 L 302.554688 273.921875 C 306.492188 271.378906 310.785156 268.609375 315.984375 266.335938 C 342.742188 254.714844 372.542969 252.316406 402.238281 259.351562 C 425.300781 264.796875 443.667969 278.601562 452.628906 297.234375 C 461.433594 315.828125 459.863281 336.550781 448.355469 354.171875 C 446.03125 357.757812 443.296875 360.996094 440.480469 363.929688 C 462.300781 378.1875 468.65625 397.363281 469.769531 412.382812 C 471.632812 436.066406 462.367188 458.707031 443.675781 476.070312 C 424.03125 494.335938 395.382812 504.8125 365.070312 504.8125 Z M 324.328125 466.492188 C 324.367188 466.507812 324.402344 466.527344 324.4375 466.542969 C 336.585938 472.085938 349.160156 475.0625 361.84375 475.402344 L 365.246094 475.480469 C 388.152344 475.445312 409.449219 467.835938 423.6875 454.589844 C 435.6875 443.441406 441.660156 429.25 440.507812 414.613281 C 439.796875 404.972656 435.957031 391.210938 411.066406 381.875 C 407.238281 380.808594 403.9375 378.210938 402.027344 374.597656 C 399.488281 369.792969 399.8125 363.976562 402.878906 359.484375 C 403.683594 358.308594 404.480469 357.464844 405.09375 356.855469 C 405.246094 356.699219 405.398438 356.542969 405.558594 356.394531 C 407.492188 354.570312 409.5 352.746094 411.523438 350.921875 C 415.957031 346.96875 420.921875 342.535156 423.753906 338.167969 C 429.664062 329.117188 430.507812 319.070312 426.140625 309.855469 C 421.074219 299.324219 409.882812 291.289062 395.480469 287.886719 C 371.910156 282.304688 348.613281 284.144531 327.710938 293.214844 C 325.585938 294.144531 323.480469 295.378906 321.320312 296.738281 L 326.28125 305.546875 C 340.191406 294.117188 356.691406 289.492188 375.71875 291.71875 C 388.617188 293.210938 399.269531 298.46875 405.699219 306.511719 C 412.082031 314.5 414.0625 324.660156 411.261719 335.117188 C 405.679688 355.621094 384.96875 362.316406 378.164062 364.511719 C 373.722656 365.894531 369.34375 366.890625 365.191406 367.789062 L 365.191406 381 C 366.429688 381 367.59375 381.027344 368.785156 381.101562 C 381.636719 381.542969 392.679688 383.957031 402.539062 388.488281 C 421.710938 397.285156 425.515625 411.199219 425.332031 421.320312 C 424.886719 445.960938 402.886719 465.179688 373.019531 467.007812 C 357.933594 467.9375 343.777344 465.453125 328.871094 459.097656 C 327.242188 461.683594 325.691406 464.148438 324.328125 466.492188 Z M 324.328125 466.492188 " fill-opacity="1" fill-rule="nonzero"/><path fill="#472900" d="M 415.507812 367.878906 C 415.328125 367.792969 415.132812 367.75 415.003906 367.75 C 415.183594 367.488281 415.441406 367.269531 415.640625 367.054688 C 417.492188 365.304688 419.417969 363.5625 421.355469 361.816406 C 426.679688 357.0625 432.238281 352.046875 436.066406 346.15625 C 444.753906 332.851562 445.929688 317.367188 439.40625 303.582031 C 432.417969 289.058594 417.691406 278.066406 398.855469 273.617188 C 372.148438 267.292969 345.777344 269.386719 321.867188 279.769531 C 317.675781 281.597656 313.980469 284 310.472656 286.265625 C 308.902344 287.269531 307.441406 288.230469 305.894531 289.148438 C 303.402344 290.628906 302.550781 293.378906 303.886719 295.691406 L 318.8125 322.167969 C 319.683594 323.695312 321.414062 324.742188 323.304688 325.003906 C 325.292969 325.222656 327.214844 324.65625 328.570312 323.390625 L 330.574219 321.472656 C 331.796875 320.25 333.105469 319.027344 334.5 317.808594 C 345.5625 308.210938 358.335938 304.457031 374.019531 306.289062 C 383.078125 307.335938 390.300781 310.742188 394.234375 315.667969 C 397.722656 320.03125 398.675781 325.394531 397.089844 331.332031 C 394.691406 340.140625 387.289062 346.160156 373.648438 350.566406 C 369.722656 351.789062 365.617188 352.703125 361.347656 353.621094 L 354.886719 355.101562 C 352.265625 355.753906 350.523438 357.765625 350.523438 360.164062 L 350.523438 390.519531 C 350.523438 393.351562 353.140625 395.664062 356.457031 395.664062 L 364.226562 395.664062 C 365.578125 395.664062 366.800781 395.664062 368.066406 395.753906 C 378.953125 396.105469 388.25 398.066406 396.414062 401.816406 C 406.296875 406.355469 410.820312 412.457031 410.664062 421.054688 C 410.359375 437.804688 394.171875 451.023438 372.128906 452.371094 C 357.324219 453.289062 343.664062 450.277344 328.671875 442.867188 C 327.300781 442.210938 325.621094 442.078125 324.109375 442.425781 C 322.589844 442.816406 321.296875 443.738281 320.535156 444.960938 L 317.175781 450.144531 C 314.730469 454.03125 312.414062 457.652344 310.425781 461.269531 C 304.90625 471.257812 309.136719 475.707031 318.375 479.898438 C 332.230469 486.21875 346.761719 489.667969 361.453125 490.058594 L 365.070312 490.148438 C 391.785156 490.148438 416.75 481.078125 433.6875 465.324219 C 448.988281 451.105469 456.644531 432.609375 455.136719 413.460938 C 453.566406 392.261719 440.234375 376.953125 415.507812 367.878906 Z M 415.507812 367.878906 " fill-opacity="1" fill-rule="evenodd"/><path fill="#472900" d="M 415.507812 367.878906 C 415.328125 367.792969 415.132812 367.75 415.003906 367.75 C 415.183594 367.488281 415.441406 367.269531 415.640625 367.054688 C 417.492188 365.304688 419.417969 363.5625 421.355469 361.816406 C 426.679688 357.0625 432.238281 352.046875 436.066406 346.15625 C 444.753906 332.851562 445.929688 317.367188 439.40625 303.582031 C 432.417969 289.058594 417.691406 278.066406 398.855469 273.617188 C 372.148438 267.292969 345.777344 269.386719 321.867188 279.769531 C 317.675781 281.597656 313.980469 284 310.472656 286.265625 C 308.902344 287.269531 307.441406 288.230469 305.894531 289.148438 C 303.402344 290.628906 302.550781 293.378906 303.886719 295.691406 L 318.8125 322.167969 C 319.683594 323.695312 321.414062 324.742188 323.304688 325.003906 C 325.292969 325.222656 327.214844 324.65625 328.570312 323.390625 L 330.574219 321.472656 C 331.796875 320.25 333.105469 319.027344 334.5 317.808594 C 345.5625 308.210938 358.335938 304.457031 374.019531 306.289062 C 383.078125 307.335938 390.300781 310.742188 394.234375 315.667969 C 397.722656 320.03125 398.675781 325.394531 397.089844 331.332031 C 394.691406 340.140625 387.289062 346.160156 373.648438 350.566406 C 369.722656 351.789062 365.617188 352.703125 361.347656 353.621094 L 354.886719 355.101562 C 352.265625 355.753906 350.523438 357.765625 350.523438 360.164062 L 350.523438 390.519531 C 350.523438 393.351562 353.140625 395.664062 356.457031 395.664062 L 364.226562 395.664062 C 365.578125 395.664062 366.800781 395.664062 368.066406 395.753906 C 378.953125 396.105469 388.25 398.066406 396.414062 401.816406 C 406.296875 406.355469 410.820312 412.457031 410.664062 421.054688 C 410.359375 437.804688 394.171875 451.023438 372.128906 452.371094 C 357.324219 453.289062 343.664062 450.277344 328.671875 442.867188 C 327.300781 442.210938 325.621094 442.078125 324.109375 442.425781 C 322.589844 442.816406 321.296875 443.738281 320.535156 444.960938 L 317.175781 450.144531 C 314.730469 454.03125 312.414062 457.652344 310.425781 461.269531 C 304.90625 471.257812 309.136719 475.707031 318.375 479.898438 C 332.230469 486.21875 346.761719 489.667969 361.453125 490.058594 L 365.070312 490.148438 C 391.785156 490.148438 416.75 481.078125 433.6875 465.324219 C 448.988281 451.105469 456.644531 432.609375 455.136719 413.460938 C 453.566406 392.261719 440.234375 376.953125 415.507812 367.878906 Z M 415.507812 367.878906 " fill-opacity="1" fill-rule="evenodd"/></svg>