<svg xmlns="http://www.w3.org/2000/svg" xmlns:xlink="http://www.w3.org/1999/xlink" width="1000" zoomAndPan="magnify" viewBox="0 0 750 749.999995" height="1000" preserveAspectRatio="xMidYMid meet" version="1.0"><defs><clipPath id="c07d345ac4"><path d="M 444 219.347656 L 488 219.347656 L 488 530.597656 L 444 530.597656 Z M 444 219.347656 " clip-rule="nonzero"/></clipPath></defs><rect x="-75" width="900" fill="#ffffff" y="-74.999999" height="899.999994" fill-opacity="1"/><rect x="-75" width="900" fill="#ffffff" y="-74.999999" height="899.999994" fill-opacity="1"/><path fill="#ff77bb" d="M 520.984375 378.050781 C 521.289062 412.863281 493.320312 441.339844 458.507812 441.644531 C 423.695312 441.953125 395.226562 413.972656 394.917969 379.160156 C 394.605469 344.347656 422.582031 315.878906 457.394531 315.574219 C 492.210938 315.265625 520.679688 343.246094 520.984375 378.050781 " fill-opacity="1" fill-rule="nonzero"/><path fill="#040606" d="M 520.984375 378.050781 L 515.054688 378.105469 L 515.066406 378.613281 C 515.054688 394.285156 508.757812 408.453125 498.523438 418.808594 C 488.273438 429.132812 474.160156 435.570312 458.453125 435.71875 L 457.941406 435.71875 C 442.273438 435.71875 428.101562 429.421875 417.757812 419.179688 C 407.421875 408.925781 400.984375 394.8125 400.847656 379.113281 L 400.835938 378.597656 C 400.847656 362.925781 407.144531 348.757812 417.378906 338.410156 C 427.628906 328.074219 441.746094 321.640625 457.453125 321.5 L 457.960938 321.5 C 473.632812 321.5 487.800781 327.796875 498.144531 338.039062 C 508.480469 348.292969 514.917969 362.40625 515.054688 378.105469 L 526.910156 377.992188 C 526.753906 359.082031 518.945312 341.957031 506.488281 329.621094 C 494.042969 317.277344 476.855469 309.644531 457.960938 309.644531 L 457.339844 309.644531 C 438.417969 309.8125 421.296875 317.609375 408.960938 330.066406 C 396.613281 342.523438 388.984375 359.710938 388.984375 378.597656 L 388.992188 379.214844 C 389.148438 398.136719 396.949219 415.261719 409.414062 427.597656 C 421.859375 439.941406 439.050781 447.574219 457.941406 447.574219 L 458.5625 447.574219 C 477.484375 447.40625 494.609375 439.609375 506.945312 427.144531 C 519.289062 414.695312 526.921875 397.507812 526.921875 378.613281 L 526.910156 378.003906 L 526.910156 377.992188 L 520.984375 378.050781 " fill-opacity="1" fill-rule="nonzero"/><path fill="#fde18c" d="M 221.078125 402.988281 C 234.042969 402.871094 243.277344 413.296875 241.589844 426.160156 L 232.253906 497.371094 C 230.578125 510.226562 218.585938 520.839844 205.621094 520.960938 L 196.21875 521.035156 C 183.253906 521.15625 173.808594 510.699219 175.242188 497.808594 L 183.140625 426.734375 C 184.570312 413.84375 196.347656 403.203125 209.324219 403.09375 L 221.078125 402.988281 " fill-opacity="1" fill-rule="nonzero"/><path fill="#040606" d="M 221.078125 402.988281 L 221.121094 408.90625 L 221.28125 408.90625 C 225.726562 408.925781 229.261719 410.511719 231.792969 413.011719 C 234.3125 415.53125 235.847656 418.976562 235.855469 423.152344 C 235.855469 423.875 235.8125 424.625 235.710938 425.394531 L 226.382812 496.59375 C 225.761719 501.417969 223.105469 506.085938 219.242188 509.503906 C 215.378906 512.929688 210.425781 514.996094 205.5625 515.03125 L 196.171875 515.105469 L 196.007812 515.105469 C 191.515625 515.097656 187.867188 513.46875 185.246094 510.863281 C 182.632812 508.253906 181.039062 504.660156 181.03125 500.382812 C 181.03125 499.761719 181.066406 499.121094 181.132812 498.464844 L 189.023438 427.382812 C 189.550781 422.558594 192.097656 417.929688 195.875 414.519531 C 199.644531 411.113281 204.507812 409.046875 209.371094 409.019531 L 221.121094 408.90625 L 221.078125 402.988281 L 221.019531 397.0625 L 209.269531 397.164062 C 201.15625 397.246094 193.652344 400.5625 187.929688 405.722656 C 182.214844 410.890625 178.152344 418.019531 177.242188 426.078125 L 169.351562 497.160156 C 169.230469 498.242188 169.175781 499.316406 169.175781 500.382812 C 169.15625 507.714844 172.027344 514.449219 176.871094 519.265625 C 181.707031 524.089844 188.515625 526.980469 196.007812 526.960938 L 196.273438 526.960938 L 205.664062 526.886719 C 213.769531 526.792969 221.296875 523.496094 227.097656 518.375 C 232.882812 513.246094 237.070312 506.167969 238.136719 498.140625 L 247.460938 426.929688 C 247.636719 425.660156 247.710938 424.394531 247.710938 423.152344 C 247.730469 415.957031 244.925781 409.324219 240.144531 404.601562 C 235.386719 399.859375 228.671875 397.042969 221.28125 397.054688 L 221.019531 397.0625 L 221.078125 402.988281 " fill-opacity="1" fill-rule="nonzero"/><path fill="#c46943" d="M 186.207031 322.675781 L 159.542969 322.90625 C 129.808594 323.175781 105.902344 347.496094 106.171875 377.242188 C 106.429688 406.992188 130.761719 430.886719 160.5 430.625 L 187.160156 430.382812 L 186.207031 322.675781 " fill-opacity="1" fill-rule="nonzero"/><path fill="#040606" d="M 186.207031 322.675781 L 186.152344 316.75 L 159.5 316.980469 C 143.097656 317.128906 128.242188 323.890625 117.554688 334.6875 C 106.855469 345.476562 100.234375 360.386719 100.234375 376.761719 L 100.246094 377.300781 L 100.246094 377.289062 C 100.382812 393.691406 107.144531 408.546875 117.941406 419.234375 C 128.742188 429.941406 143.644531 436.554688 160.015625 436.554688 L 160.554688 436.554688 L 187.207031 436.3125 C 188.773438 436.300781 190.292969 435.65625 191.386719 434.542969 C 192.476562 433.433594 193.097656 431.894531 193.078125 430.339844 L 192.136719 322.621094 C 192.105469 319.351562 189.429688 316.722656 186.152344 316.75 L 186.207031 322.675781 L 180.28125 322.730469 L 181.179688 424.511719 L 160.441406 424.699219 L 160.453125 424.699219 L 160.015625 424.699219 C 146.867188 424.699219 134.972656 419.410156 126.289062 410.816406 C 117.609375 402.210938 112.210938 390.375 112.097656 377.1875 L 112.089844 376.761719 C 112.097656 363.601562 117.378906 351.71875 125.972656 343.03125 C 134.578125 334.355469 146.421875 328.957031 159.601562 328.835938 L 186.261719 328.601562 L 186.207031 322.675781 L 180.28125 322.730469 L 186.207031 322.675781 " fill-opacity="1" fill-rule="nonzero"/><path fill="#c46943" d="M 459.183594 518.71875 L 224.808594 424.160156 L 223.976562 329.910156 L 456.65625 231.230469 L 459.183594 518.71875 " fill-opacity="1" fill-rule="nonzero"/><path fill="#040606" d="M 459.183594 524.644531 C 460.75 524.644531 462.277344 524.015625 463.378906 522.914062 C 464.480469 521.800781 465.109375 520.285156 465.109375 518.71875 C 465.109375 517.164062 464.480469 515.632812 463.378906 514.53125 C 462.277344 513.421875 460.75 512.792969 459.183594 512.792969 C 457.628906 512.792969 456.097656 513.421875 454.996094 514.53125 C 453.894531 515.632812 453.257812 517.164062 453.257812 518.71875 C 453.257812 520.285156 453.894531 521.800781 454.996094 522.914062 C 456.097656 524.015625 457.628906 524.644531 459.183594 524.644531 " fill-opacity="1" fill-rule="nonzero"/><path fill="#040606" d="M 461.40625 513.226562 L 280.367188 440.183594 C 277.328125 438.960938 273.875 440.433594 272.652344 443.460938 C 271.429688 446.5 272.894531 449.953125 275.929688 451.175781 L 456.96875 524.21875 C 460.007812 525.441406 463.460938 523.96875 464.683594 520.933594 C 465.90625 517.902344 464.445312 514.449219 461.40625 513.226562 Z M 248.046875 427.144531 C 245.007812 425.921875 241.554688 427.382812 240.332031 430.421875 C 239.097656 433.460938 240.570312 436.914062 243.609375 438.136719 C 246.636719 439.367188 250.09375 437.894531 251.324219 434.859375 C 252.546875 431.820312 251.074219 428.367188 248.046875 427.144531 " fill-opacity="1" fill-rule="nonzero"/><path fill="#040606" d="M 224.808594 430.089844 C 226.375 430.089844 227.902344 429.457031 229.003906 428.355469 C 230.105469 427.253906 230.734375 425.726562 230.734375 424.160156 C 230.734375 422.605469 230.105469 421.078125 229.003906 419.976562 C 227.902344 418.871094 226.375 418.234375 224.808594 418.234375 C 223.253906 418.234375 221.726562 418.871094 220.621094 419.976562 C 219.511719 421.078125 218.882812 422.605469 218.882812 424.160156 C 218.882812 425.726562 219.511719 427.253906 220.621094 428.355469 C 221.726562 429.457031 223.253906 430.089844 224.808594 430.089844 " fill-opacity="1" fill-rule="nonzero"/><path fill="#040606" d="M 230.734375 424.113281 L 230.097656 351.304688 C 230.070312 348.035156 227.394531 345.402344 224.113281 345.429688 C 220.84375 345.460938 218.214844 348.136719 218.242188 351.40625 L 218.882812 424.214844 C 218.910156 427.484375 221.585938 430.117188 224.863281 430.089844 C 228.132812 430.0625 230.765625 427.382812 230.734375 424.113281 " fill-opacity="1" fill-rule="nonzero"/><path fill="#040606" d="M 223.976562 335.835938 C 225.539062 335.835938 227.070312 335.199219 228.171875 334.09375 C 229.273438 332.992188 229.902344 331.464844 229.902344 329.910156 C 229.902344 328.34375 229.273438 326.816406 228.171875 325.714844 C 227.070312 324.613281 225.539062 323.980469 223.976562 323.980469 C 222.417969 323.980469 220.890625 324.613281 219.789062 325.714844 C 218.6875 326.816406 218.046875 328.34375 218.046875 329.910156 C 218.046875 331.464844 218.6875 332.992188 219.789062 334.09375 C 220.890625 335.199219 222.417969 335.835938 223.976562 335.835938 " fill-opacity="1" fill-rule="nonzero"/><path fill="#040606" d="M 226.289062 335.363281 L 406.015625 259.144531 C 409.023438 257.867188 410.433594 254.382812 409.152344 251.375 C 407.875 248.355469 404.402344 246.957031 401.382812 248.234375 L 221.667969 324.445312 C 218.648438 325.722656 217.242188 329.207031 218.519531 332.214844 C 219.796875 335.234375 223.28125 336.640625 226.289062 335.363281 Z M 438.105469 245.539062 C 441.113281 244.25 442.53125 240.777344 441.253906 237.761719 C 439.964844 234.75 436.492188 233.34375 433.472656 234.621094 C 430.464844 235.898438 429.054688 239.378906 430.335938 242.390625 C 431.613281 245.398438 435.09375 246.816406 438.105469 245.539062 " fill-opacity="1" fill-rule="nonzero"/><path fill="#040606" d="M 456.65625 237.15625 C 458.210938 237.15625 459.738281 236.527344 460.839844 235.417969 C 461.941406 234.316406 462.582031 232.796875 462.582031 231.230469 C 462.582031 229.664062 461.941406 228.148438 460.839844 227.035156 C 459.738281 225.933594 458.210938 225.304688 456.65625 225.304688 C 455.089844 225.304688 453.5625 225.933594 452.460938 227.035156 C 451.359375 228.148438 450.726562 229.664062 450.726562 231.230469 C 450.726562 232.796875 451.359375 234.316406 452.460938 235.417969 C 453.5625 236.527344 455.089844 237.15625 456.65625 237.15625 " fill-opacity="1" fill-rule="nonzero"/><path fill="#040606" d="M 450.726562 231.285156 L 452.683594 453.34375 C 452.710938 456.613281 455.386719 459.242188 458.664062 459.214844 C 461.933594 459.1875 464.5625 456.511719 464.535156 453.242188 L 462.574219 231.175781 C 462.546875 227.90625 459.867188 225.277344 456.597656 225.304688 C 453.332031 225.332031 450.691406 228.007812 450.726562 231.285156 Z M 453.035156 493 C 453.0625 496.269531 455.738281 498.898438 459.007812 498.871094 C 462.285156 498.84375 464.917969 496.167969 464.886719 492.890625 C 464.859375 489.621094 462.183594 486.988281 458.90625 487.015625 C 455.636719 487.046875 453.007812 489.722656 453.035156 493 " fill-opacity="1" fill-rule="nonzero"/><path fill="#c46943" d="M 459.183594 524.644531 C 455.933594 524.644531 453.285156 522.023438 453.257812 518.773438 L 450.726562 231.285156 C 450.710938 229.710938 451.320312 228.191406 452.421875 227.082031 C 453.523438 225.953125 455.023438 225.320312 456.597656 225.304688 L 472.910156 225.164062 C 476.160156 225.164062 478.808594 227.785156 478.835938 231.035156 L 481.375 518.523438 C 481.382812 520.097656 480.769531 521.609375 479.667969 522.730469 C 478.566406 523.847656 477.066406 524.488281 475.492188 524.507812 L 459.183594 524.644531 " fill-opacity="1" fill-rule="nonzero"/><g clip-path="url(#c07d345ac4)"><path fill="#040606" d="M 472.910156 219.238281 L 472.808594 219.238281 L 456.542969 219.375 C 453.40625 219.402344 450.394531 220.683594 448.199219 222.921875 C 445.996094 225.164062 444.773438 228.191406 444.800781 231.332031 L 447.328125 518.820312 C 447.394531 525.339844 452.683594 530.574219 459.183594 530.574219 L 459.292969 530.574219 L 475.546875 530.433594 C 478.695312 530.40625 481.699219 529.128906 483.902344 526.886719 C 486.105469 524.644531 487.328125 521.617188 487.300781 518.46875 L 484.761719 230.980469 C 484.707031 224.46875 479.410156 219.238281 472.910156 219.238281 Z M 472.910156 231.089844 L 475.445312 518.578125 L 459.183594 518.71875 L 456.65625 231.230469 L 472.910156 231.089844 " fill-opacity="1" fill-rule="nonzero"/></g><path fill="#ff77bb" d="M 168.359375 436.441406 L 260.539062 435.636719 L 259.492188 317.3125 L 167.316406 318.128906 L 168.359375 436.441406 " fill-opacity="1" fill-rule="nonzero"/><path fill="#040606" d="M 168.359375 436.441406 L 168.40625 442.367188 L 260.585938 441.5625 C 262.148438 441.542969 263.667969 440.894531 264.761719 439.785156 C 265.855469 438.671875 266.476562 437.136719 266.464844 435.582031 L 265.417969 317.269531 C 265.390625 313.988281 262.714844 311.359375 259.4375 311.386719 L 167.257812 312.203125 C 165.703125 312.21875 164.183594 312.859375 163.082031 313.972656 C 161.988281 315.089844 161.367188 316.621094 161.386719 318.183594 L 162.433594 436.496094 C 162.460938 439.777344 165.136719 442.398438 168.40625 442.367188 L 168.359375 436.441406 L 174.289062 436.394531 L 173.289062 324 L 253.621094 323.296875 L 254.554688 429.753906 L 168.304688 430.515625 L 168.359375 436.441406 L 174.289062 436.394531 L 168.359375 436.441406 " fill-opacity="1" fill-rule="nonzero"/><path fill="#040606" d="M 419.007812 288.964844 L 419.007812 401.8125 C 419.007812 405.082031 421.667969 407.742188 424.933594 407.742188 C 428.214844 407.742188 430.863281 405.082031 430.863281 401.8125 L 430.863281 288.964844 C 430.863281 285.695312 428.214844 283.039062 424.933594 283.039062 C 421.667969 283.039062 419.007812 285.695312 419.007812 288.964844 " fill-opacity="1" fill-rule="nonzero"/><path fill="#040606" d="M 419.007812 429.449219 L 419.007812 460.835938 C 419.007812 464.113281 421.667969 466.761719 424.933594 466.761719 C 428.214844 466.761719 430.863281 464.113281 430.863281 460.835938 L 430.863281 429.449219 C 430.863281 426.179688 428.214844 423.523438 424.933594 423.523438 C 421.667969 423.523438 419.007812 426.179688 419.007812 429.449219 " fill-opacity="1" fill-rule="nonzero"/><path fill="#040606" d="M 545 332.753906 L 619.738281 280.453125 C 622.414062 278.582031 623.070312 274.886719 621.191406 272.203125 C 619.3125 269.515625 615.625 268.867188 612.9375 270.75 L 538.199219 323.039062 C 535.515625 324.910156 534.867188 328.613281 536.738281 331.289062 C 538.617188 333.976562 542.3125 334.625 545 332.753906 " fill-opacity="1" fill-rule="nonzero"/><path fill="#040606" d="M 555.695312 384.152344 L 643.816406 384.152344 C 647.085938 384.152344 649.742188 381.496094 649.742188 378.226562 C 649.742188 374.957031 647.085938 372.296875 643.816406 372.296875 L 555.695312 372.296875 C 552.425781 372.296875 549.769531 374.957031 549.769531 378.226562 C 549.769531 381.496094 552.425781 384.152344 555.695312 384.152344 " fill-opacity="1" fill-rule="nonzero"/><path fill="#040606" d="M 539.007812 433.460938 L 625.367188 475.375 C 628.3125 476.800781 631.859375 475.570312 633.285156 472.625 C 634.710938 469.679688 633.488281 466.140625 630.542969 464.707031 L 544.183594 422.789062 C 541.238281 421.363281 537.691406 422.597656 536.265625 425.542969 C 534.839844 428.484375 536.0625 432.023438 539.007812 433.460938 " fill-opacity="1" fill-rule="nonzero"/><path fill="#040606" d="M 229.910156 317.628906 L 229.910156 430.625 C 229.910156 433.894531 232.558594 436.554688 235.839844 436.554688 C 239.109375 436.554688 241.765625 433.894531 241.765625 430.625 L 241.765625 317.628906 C 241.765625 314.359375 239.109375 311.703125 235.839844 311.703125 C 232.558594 311.703125 229.910156 314.359375 229.910156 317.628906 " fill-opacity="1" fill-rule="nonzero"/></svg>